<mxfile host="app.diagrams.net" modified="2024-07-24T06:07:58.197Z" agent="Mozilla/5.0 (Windows NT 10.0; Win64; x64) AppleWebKit/537.36 (KHTML, like Gecko) Chrome/126.0.0.0 Safari/537.36" version="24.6.4" etag="LNJ4DQBxMYJOKsMrycLf" type="github">
  <diagram name="第 1 页" id="oP0_CuSvEVclqgFqYXnm">
    <mxGraphModel>
      <root>
        <mxCell id="0" />
        <mxCell id="1" parent="0" />
      </root>
    </mxGraphModel>
  </diagram>
</mxfile>
